<?xml version="1.0" encoding="UTF-8" standalone="no"?>
<svg
   xmlns:dc="http://purl.org/dc/elements/1.1/"
   xmlns:cc="http://creativecommons.org/ns#"
   xmlns:rdf="http://www.w3.org/1999/02/22-rdf-syntax-ns#"
   xmlns:svg="http://www.w3.org/2000/svg"
   xmlns="http://www.w3.org/2000/svg"
   id="svg8"
   version="1.1"
   viewBox="0 0 210 297"
   height="297mm"
   width="210mm">
  <defs
     id="defs2" />
  <metadata
     id="metadata5">
    <rdf:RDF>
      <cc:Work
         rdf:about="">
        <dc:format>image/svg+xml</dc:format>
        <dc:type
           rdf:resource="http://purl.org/dc/dcmitype/StillImage" />
        <dc:title></dc:title>
      </cc:Work>
    </rdf:RDF>
  </metadata>
  <g
     style="opacity:1"
     id="layer1">
    <g
       transform="matrix(0.01661987,0,0,0.01661987,-4456.4194,338.15387)"
       id="g4707">
      <path
         style="opacity:0.5;fill:#4d4d4d;stroke-width:0.60546583"
         d="m -949.80509,-1073.4997 v 354.342 H -2143.7818 v 354.34262 h -1193.977 V -10.473051 H -4531.7363 V 343.86892 h 1193.9775 1193.977 1193.97671 1193.97762 V -10.473051 -364.81508 -719.1577 v -354.342 z"
         id="rect10-2" />
      <path
         style="opacity:0.5;fill:#4d4d4d;stroke-width:0.60546583"
         d="m -1173.196,-850.10866 h 354.34199 V -2044.0855 h 354.34267 v -1193.977 h 354.34207 v -1193.9774 h 354.34196 v 1193.9774 1193.977 1193.97684 1193.97759 H -110.16927 -464.51134 -818.85401 -1173.196 Z"
         id="rect10-2-7" />
      <path
         style="fill:#ffffff;stroke-width:1.83563602"
         d="m -2697.0137,-2997.4805 v 1074.2852 H -6316.8828 V -848.9082 H -9936.752 V 225.37695 h -3619.871 V 1299.6621 h 3619.871 3619.8692 3619.8691 3619.87112 V 225.37695 -848.9082 -1923.1953 -2997.4805 Z"
         id="rect10"
         transform="scale(0.26458333)" />
      <path
         style="fill:#ffffff;stroke-width:0.4856787"
         d="m -892.77961,-613.88867 h 284.2379 v -957.75693 h 284.2385 v -957.7571 h 284.238 v -957.7575 h 284.2379 v 957.7575 957.7571 957.75693 957.7576 h -284.2379 -284.238 -284.2385 -284.2379 z"
         id="rect10-0" />
    </g>
  </g>
</svg>
