<?xml version="1.0" encoding="UTF-8" standalone="no"?>
<svg
   xmlns:dc="http://purl.org/dc/elements/1.1/"
   xmlns:cc="http://creativecommons.org/ns#"
   xmlns:rdf="http://www.w3.org/1999/02/22-rdf-syntax-ns#"
   xmlns:svg="http://www.w3.org/2000/svg"
   xmlns="http://www.w3.org/2000/svg"
   id="svg4934"
   xml:space="preserve"
   enable-background="new 0 0 100 100"
   viewBox="0 0 100 125"
   y="0px"
   x="0px"
   version="1.1"><metadata
     id="metadata4940"><rdf:RDF><cc:Work
         rdf:about=""><dc:format>image/svg+xml</dc:format><dc:type
           rdf:resource="http://purl.org/dc/dcmitype/StillImage" /><dc:title></dc:title></cc:Work></rdf:RDF></metadata><defs
     id="defs4938" /><path
     id="path4906"
     d="M54.8,22.7c-4.1,0-7.4,3.3-7.4,7.4c0,4.1,3.3,7.4,7.4,7.4c4.1,0,7.4-3.3,7.4-7.4C62.2,26.1,58.9,22.7,54.8,22.7z M54.8,34.7  c-2.5,0-4.5-2-4.5-4.5c0-2.5,2-4.6,4.5-4.6c2.5,0,4.6,2,4.6,4.6C59.3,32.7,57.3,34.7,54.8,34.7z" /><g
     id="g4910"><path
       id="path4908"
       d="M25.3,82.6c2.1-1.3,3.5-3.6,3.5-6.3c0-4.1-3.3-7.4-7.4-7.4c-4.1,0-7.4,3.3-7.4,7.4c0,2.7,1.4,5,3.5,6.3   c-2.1,1.3-3.5,3.6-3.5,6.3l-0.1,3.7c0,0.4,0.1,0.8,0.4,1c0.3,0.3,0.6,0.4,1,0.4h12c0.8,0,1.4-0.6,1.4-1.4v-3.7   C28.8,86.2,27.4,83.9,25.3,82.6z M16.8,76.3c0-2.5,2-4.6,4.5-4.6c2.5,0,4.6,2.1,4.6,4.6c0,2.5-2,4.6-4.6,4.6   C18.9,80.9,16.8,78.8,16.8,76.3z M25.9,91.2h-9.1l0-2.3c0-2.5,2-4.5,4.5-4.5c2.5,0,4.6,2,4.6,4.5V91.2z" /></g><g
     id="g4914"><path
       id="path4912"
       d="M85.3,51.9c-0.1-0.4-0.4-0.7-0.8-0.8L60.9,40.3c-0.2-0.1-0.4-0.1-0.6-0.1H43.1l-8.6-8.6l5-5.1c0.2-0.3,0.4-0.6,0.4-0.9   c0,0,0.1,0,0.1,0c0.1,0,0.3,0.1,0.4,0.1c0.2,0,0.5-0.1,0.7-0.2l8.5-4.8c0.7-0.4,0.9-1.2,0.6-1.9L44.8,7.2c-0.2-0.4-0.5-0.6-0.8-0.7   c-0.4-0.1-0.8-0.1-1.1,0.1l-9.1,4.8c-0.7,0.4-1,1.2-0.6,1.9l5.2,10.1l-4.1-4.1c-0.6-0.6-1.5-0.6-2,0l-11,11.1c-0.6,0.6-0.6,1.5,0,2   l18,18h-6c-0.5,0-1,0.3-1.3,0.8c-0.2,0.5-0.2,1.1,0.2,1.5l5.4,6.8v10.1c-2.7,1.1-4.6,3.8-4.6,6.9c0,2.7,1.4,5,3.5,6.3   c-2.1,1.3-3.5,3.6-3.5,6.3l-0.1,3.7c0,0.4,0.1,0.8,0.4,1c0.3,0.3,0.6,0.4,1,0.4h12c0.8,0,1.4-0.6,1.4-1.4V89h4l-0.1,3.6   c0,0.4,0.1,0.8,0.4,1c0.3,0.3,0.6,0.4,1,0.4h12c0.8,0,1.4-0.6,1.4-1.4v-3.7c0-2.7-1.4-5-3.5-6.3c2.1-1.3,3.5-3.6,3.5-6.3   c0-3.1-1.9-5.8-4.7-6.9V59.3l4.4-5.5l13.7,6.2c0.2,0.1,0.4,0.1,0.6,0.1c0.5,0,1-0.3,1.3-0.8l3.4-6.4C85.4,52.7,85.4,52.3,85.3,51.9   z M36.3,13.2l6.5-3.4l4.3,9.2l-6,3.4L36.3,13.2z M35.7,76.3c0-1.4,0.7-2.7,1.7-3.6c0.8-0.6,1.8-1,2.8-1h0.1c2.5,0,4.5,2.1,4.5,4.6   c0,2.5-2,4.5-4.5,4.6h-0.1c-1.1,0-2-0.4-2.8-1C36.3,79.1,35.7,77.8,35.7,76.3z M44.8,91.2h-9.1l0-2.3c0-1.4,0.7-2.7,1.7-3.6   c0.8-0.6,1.8-1,2.8-1h0.1c1.4,0,2.7,0.7,3.6,1.8c0.6,0.8,0.9,1.7,0.9,2.8V91.2z M63.6,88.9v2.3h-9.1l0-2.2v-0.1c0-1,0.3-2,0.9-2.8   c0.8-1,2.1-1.7,3.5-1.8c0,0,0.1,0,0.1,0c1,0,2,0.4,2.8,0.9C62.9,86.1,63.6,87.4,63.6,88.9z M63.6,76.3c0,1.5-0.7,2.8-1.8,3.6   c-0.8,0.6-1.7,0.9-2.8,0.9H59c-2.4-0.1-4.4-2.1-4.4-4.6c0-2.5,2-4.5,4.4-4.5c0,0,0.1,0,0.1,0c1,0,2,0.4,2.8,0.9   C62.9,73.5,63.6,74.9,63.6,76.3z M59.3,57.9c-0.2,0.3-0.3,0.6-0.3,0.9v10.1c-4,0.1-7.3,3.4-7.3,7.4c0,2.7,1.4,5,3.5,6.3   c-1.3,0.8-2.4,2.1-2.9,3.5h-5.1c-0.6-1.5-1.6-2.7-3-3.5c2.1-1.3,3.5-3.6,3.5-6.3c0-4.1-3.3-7.4-7.4-7.4V58.8c0-0.3-0.1-0.6-0.3-0.9   l-3.9-4.9h27.1L59.3,57.9z M79.9,56.9l-12.3-5.6L65,50.2l-3.6-1.6c-0.2-0.1-0.4-0.1-0.6-0.1c-0.3,0-0.5,0.1-0.8,0.2   c-0.4,0.3-0.7,0.7-0.7,1.2l-16.5,0L24.2,31.2l9-9l3.3,3.3l-5,5c-0.6,0.6-0.6,1.5,0,2l10,10c0.3,0.3,0.6,0.4,1,0.4H60l21.9,10   L79.9,56.9z" /></g><g
     id="g4918"><path
       id="path4916"
       d="M81.9,82.6c2.1-1.3,3.5-3.6,3.5-6.3c0-4.1-3.3-7.4-7.4-7.4c-4.1,0-7.4,3.3-7.4,7.4c0,2.7,1.4,5,3.5,6.3   c-2.1,1.3-3.5,3.6-3.5,6.3l-0.1,3.7c0,0.4,0.1,0.8,0.4,1c0.3,0.3,0.6,0.4,1,0.4h12c0.8,0,1.4-0.6,1.4-1.4v-3.7   C85.4,86.2,84,83.9,81.9,82.6z M73.4,76.3c0-2.5,2-4.6,4.6-4.6c2.5,0,4.5,2.1,4.5,4.6c0,2.5-2,4.6-4.5,4.6   C75.4,80.9,73.4,78.8,73.4,76.3z M82.5,91.2h-9.1l0-2.3c0-2.5,2-4.5,4.6-4.5c2.5,0,4.5,2,4.5,4.5V91.2z" /></g><polygon
     id="polygon4920"
     points="66.7,14.4 64.1,20 61.5,18.8 64.1,13.2 " /><polygon
     id="polygon4922"
     points="74.2,22.4 68.3,25.1 67.1,22.5 73,19.8 " /><rect
     id="rect4924"
     height="6.1"
     width="2.9"
     transform="matrix(0.2751 -0.9614 0.9614 0.2751 20.7628 91.9385)"
     y="29.2"
     x="69.9" /><polygon
     id="polygon4926"
     points="42.9,12.9 39,14.8 38.3,13.5 42.2,11.6 " /><polygon
     id="polygon4928"
     points="43.9,15.2 40.1,17.2 39.4,15.9 43.3,13.9 " /></svg>